<?xml version="1.0" encoding="UTF-8"?>
<!DOCTYPE svg PUBLIC '-//W3C//DTD SVG 1.1//EN' 'http://www.w3.org/Graphics/SVG/1.1/DTD/svg11.dtd'>
<svg clip-rule="evenodd" fill-rule="evenodd" image-rendering="optimizeQuality" shape-rendering="geometricPrecision"
  text-rendering="geometricPrecision" version="1.1" viewBox="0 0 1400 1000" xmlns="http://www.w3.org/2000/svg">
  <path
    d="m-0.5 74.5h529c-12.558 14.402-25.392 28.735-38.5 43-18.137 25.15-23.47 52.816-16 83 5.548 13.208 15.382 21.375 29.5 24.5 42.085 6.458 82.252 0.292 120.5-18.5 1.944 0.939 3.611 2.273 5 4 10.421 13.194 20.588 26.528 30.5 40-17.136 42.741-34.47 85.408-52 128-0.502 1.021-1.168 1.188-2 0.5-13.012-12.842-28.346-21.676-46-26.5-0.149-1.052 0.017-2.052 0.5-3 18.484-15.812 34.817-33.478 49-53 8.589-13.61 11.256-28.277 8-44-0.36-1.921-1.194-3.588-2.5-5-5.364 1.206-10.697 2.539-16 4 2.471 6.746 5.138 13.413 8 20-5.119 6.126-10.786 11.459-17 16-2.174-9.029-4.507-18.029-7-27-0.5-0.333-1-0.667-1.5-1-5.822 1.775-11.656 3.442-17.5 5 3.033 16.134 6.7 32.134 11 48-12.342 13.842-25.176 27.175-38.5 40 4.842-28.741 9.342-57.407 13.5-86-5.606 1.323-11.273 2.323-17 3-7.433 35-14.933 70-22.5 105-11.25 7.377-22.75 14.377-34.5 21 13.16-42.98 27.494-85.814 43-128.5-6.929-1.585-13.929-2.752-21-3.5-18.978 48.429-38.644 96.596-59 144.5-13.807-0.219-27.474-1.719-41-4.5 29.792-48.75 59.459-97.583 89-146.5-5.667-3.5-11.333-7-17-10.5-39.825 45.994-79.491 92.161-119 138.5-1 0.667-2 0.667-3 0-10.535-6.699-21.202-13.199-32-19.5 46.682-44.516 93.516-88.849 140.5-133-1.249-5.329-3.749-10.162-7.5-14.5-1-0.667-2-0.667-3 0-58.497 38.083-117.16 75.916-176 113.5-9.859-7.692-19.859-15.192-30-22.5-2.246-1.257-3.579-3.09-4-5.5 68.727-34.197 137.39-68.697 206-103.5 0.199-5.374 0.199-10.874 0-16.5-80.965 29.563-161.8 59.563-242.5 90-13.619-10.451-26.785-21.451-39.5-33 94.592-25.981 189.26-51.648 284-77 0.328-5.375-5e-3 -10.708-1-16-108.5 18.611-217 37.278-325.5 56-13.33-11.831-26.497-23.831-39.5-36 126.28-13.561 252.61-26.728 379-39.5 3.333-6.333 6.667-12.667 10-19-143 5.077-286 10.077-429 15-12.566-15.662-25.232-31.162-38-46.5v-3z"
    fill="#fefffe" opacity=".95" />
  <path
    d="m1399.5 74.5v2c-3.23 1.7199-6.06 4.0532-8.5 7-12.5 13.167-25 26.333-37.5 39.5-143.38-4.357-286.72-9.024-430-14 5.667 7 11.333 14 17 21 124.97 11.664 249.81 22.831 374.5 33.5 1.26 0.35 1.59 1.017 1 2-13.14 12.137-25.97 24.637-38.5 37.5-1.33 0.167-2.67 0.333-4 0.5-108.32-18.608-216.65-36.775-325-54.5 2.306 5.556 4.306 11.223 6 17 93.7 23.009 187.37 46.176 281 69.5 1.43 0.233 1.93 0.9 1.5 2-11.86 12.196-24.03 24.03-36.5 35.5-1.67 0.667-3.33 0.667-5 0-80.51-30.003-161.18-59.503-242-88.5-0.116 6.651-0.116 13.151 0 19.5 68 32.667 136 65.333 204 98 1.29 0.49 2.63 0.657 4 0.5 0.22 1.175-0.11 2.175-1 3-11.77 7.966-23.27 16.299-34.5 25-57.09-35.458-113.92-71.292-170.5-107.5-2.877-1.946-5.877-3.279-9-4-4 5.333-8 10.667-12 16 47.144 43.067 94.48 85.9 142 128.5-10.01 8.213-20.34 15.713-31 22.5-41.87-45.534-83.37-91.368-124.5-137.5-0.718-0.951-1.551-1.117-2.5-0.5l-12 9c30.319 49.81 59.986 99.977 89 150.5-14.579 0.324-29.079-0.01-43.5-1-20.333-46.667-40.667-93.333-61-140-0.674-1.078-1.674-1.745-3-2-5.379 0.968-10.546 2.468-15.5 4.5 15.045 43.425 30.378 86.759 46 130-0.35 1.257-1.017 1.591-2 1-11.501-7.252-23.168-14.252-35-21-8.187-36.432-16.187-72.932-24-109.5-5.209-1.523-10.542-2.523-16-3-0.667 0.333-1.333 0.667-2 1 5.621 29.437 11.621 58.77 18 88-0.502 1.021-1.168 1.188-2 0.5-12.907-12.405-25.241-25.238-37-38.5 3.131-17.653 6.131-35.32 9-53-6-1.667-12-3.333-18-5-1.722 9.276-3.055 18.61-4 28-1.052 0.149-2.052-0.017-3-0.5-5.167-4.5-10.333-9-15.5-13.5 1.701-7.958 3.534-15.958 5.5-24-6.097-1.534-11.93-0.867-17.5 2-2.682 14.026-1.349 27.692 4 41 5.22 9.218 11.22 17.884 18 26 10.377 11.877 21.543 22.877 33.5 33-15.426 8.796-30.926 17.463-46.5 26-0.945-0.405-1.612-1.072-2-2-16.838-41.85-33.671-83.684-50.5-125.5 13.167-15.167 26.333-30.333 39.5-45.5 34.357 22.871 71.857 30.371 112.5 22.5 30.662-11.135 43.495-32.968 38.5-65.5-2.797-15.924-9.13-30.258-19-43-12.951-15.119-26.785-29.453-41.5-43 179.33-1 358.67-1.3333 538-1z"
    fill="#fefffe" opacity=".956" />
  <path
    d="m558.5 116.5c40.333 1.333 80.667 1.333 121 0 0.17 1.322-0.163 2.489-1 3.5-19.095 6.047-38.095 12.38-57 19-1.19 10.102-2.19 20.268-3 30.5-1.052 0.149-2.052-0.017-3-0.5-18.518-16.686-37.185-33.186-56-49.5-0.886-0.825-1.219-1.825-1-3z"
    fill="#fec106" opacity=".95" />
  <path
    d="m717.5 117.5c39.335-0.167 78.668 0 118 0.5 0.457 0.414 0.791 0.914 1 1.5-18.735 16.076-37.735 31.743-57 47-1.147-0.318-1.981-0.984-2.5-2-2.51-8.194-5.01-16.361-7.5-24.5-17.336-5.778-34.502-11.945-51.5-18.5-0.49-1.293-0.657-2.627-0.5-4z"
    fill="#fec106" opacity=".947" />
  <path
    d="m566.5 138.5c1.373-0.157 2.707 0.01 4 0.5 7.515 7.348 14.848 14.848 22 22.5-8.554 2.479-17.221 4.646-26 6.5-5.499 7.329-11.499 14.162-18 20.5-3.62-13.768-7.62-27.768-12-42 9.953-3.054 19.953-5.72 30-8z"
    fill="#fefffe" opacity=".909" />
  <path
    d="m743.5 139.5c9.705 1.435 16.205 6.768 19.5 16 2.532 6.828 4.365 13.828 5.5 21-14.663 15.996-29.663 31.663-45 47-5.973-18.553-11.639-37.22-17-56 12.352-9.358 24.685-18.691 37-28z"
    fill="#fefffe" opacity=".95" />
  <path
    d="m822.5 140.5c10.201 1.573 20.201 3.906 30 7-3.796 13.85-6.962 27.85-9.5 42-4.903-6.126-9.07-12.792-12.5-20-10.196-1.711-20.363-3.377-30.5-5-0.667-1-0.667-2 0-3 7.697-6.866 15.197-13.866 22.5-21z"
    fill="#fefffe" opacity=".911" />
  <path
    d="m643.5 141.5c3.149-0.289 6.149 0.211 9 1.5 11.633 7.973 22.967 16.306 34 25-6.305 18.266-12.472 36.099-18.5 53.5-14.79-14.615-28.623-29.949-41.5-46-1.737-10.833 0.596-20.667 7-29.5 3.315-1.83 6.649-3.33 10-4.5z"
    fill="#fefffe" opacity=".95" />
  <path
    d="m695.5 167.5c0.997-0.03 1.664 0.47 2 1.5 25.769 79.141 51.436 158.31 77 237.5-12.295 9.155-24.628 18.322-37 27.5 12.876 19.586 25.876 39.086 39 58.5-5.518 5.684-10.851 11.517-16 17.5-0.983 0.591-1.65 0.257-2-1-9.529-22.891-19.195-45.724-29-68.5-0.502-1.021-1.168-1.188-2-0.5l-5 5c9.878 23.428 19.212 47.094 28 71-5.126 7.297-10.46 14.464-16 21.5-0.825 0.886-1.825 1.219-3 1-6.029-28.809-12.695-57.475-20-86-2.559 1.219-3.893 3.219-4 6 4.056 29.06 8.389 58.06 13 87-7.333 8-15 15.667-23 23-0.865 1.083-1.865 1.249-3 0.5-7.511-8.344-15.178-16.51-23-24.5 5.432-29.661 11.432-59.161 18-88.5-1.749-1.292-3.582-2.458-5.5-3.5-7.489 28.29-14.823 56.624-22 85-7.201-6.203-14.034-12.703-20.5-19.5 10.313-23.773 20.147-47.606 29.5-71.5l-4.5-4.5c-0.832-0.688-1.498-0.521-2 0.5-10.233 21.128-19.899 42.461-29 64-1.052 0.149-2.052-0.017-3-0.5-5.785-3.542-11.119-7.542-16-12 12.848-19.355 25.515-38.855 38-58.5-0.813-1.314-1.813-2.481-3-3.5-11.162-7.671-22.162-15.505-33-23.5 26.276-80.162 51.943-160.5 77-241z"
    fill="#fefffe" opacity=".965" />
  <path d="m995.5 407.5c1.333 0.667 1.333 0.667 0 0z" fill="#fefffe" opacity=".004" />
  <path
    d="m620.5 422.5c1.422 0.209 2.755 0.709 4 1.5 5.286 4.122 10.286 8.455 15 13-12.596 18.932-25.596 37.599-39 56 9.478 11.779 19.311 23.279 29.5 34.5 0.781 1.444 0.614 2.777-0.5 4-18.177 9.589-36.511 18.922-55 28-1.083-0.865-1.249-1.865-0.5-3 8.5-12.333 17-24.667 25.5-37-3.667-4.333-7.667-8.333-12-12-8.833 17-17.667 34-26.5 51-0.2 4.253-0.7 8.42-1.5 12.5 4.655 3.655 8.988 7.655 13 12-0.113 1.28-0.78 2.113-2 2.5-10.274-2.38-20.607-4.546-31-6.5-1.68-0.347-2.68-1.347-3-3 0.628-9.151 1.295-18.318 2-27.5 11.788-15.41 23.455-30.91 35-46.5-6.238-2.637-12.571-4.637-19-6-6.22 13.988-12.053 28.155-17.5 42.5-1.011 0.837-2.178 1.17-3.5 1v-60c15.341 0.823 30.675 1.823 46 3 1.667-0.333 3.333-0.667 5-1 10.667-17.154 21.5-34.154 32.5-51 1.481-2.61 2.648-5.277 3.5-8z"
    fill="#fec106" opacity=".939" />
  <path
    d="m767.5 427.5c1.89-0.203 3.39 0.463 4.5 2 11.623 16.413 23.123 32.913 34.5 49.5 16.611 2.131 33.278 3.631 50 4.5 0.048 18.493-0.786 36.826-2.5 55-1.074-1.118-2.24-2.118-3.5-3 1.402-1.342 1.069-2.176-1-2.5l1-1c-1.919-2.408-3.252-4.741-4-7 1.134-1.016 0.801-1.683-1-2v-4c-2.93-4.754-5.597-10.587-8-17.5-5.9-1.733-11.9-2.233-18-1.5 11.5 16.167 23 32.333 34.5 48.5 0.63 9.057 0.13 18.057-1.5 27-9.724 4.352-19.724 7.686-30 10 4.711-6.567 9.711-13.067 15-19.5-11.18-19.517-22.013-39.351-32.5-59.5-3.964 5.764-7.797 11.598-11.5 17.5 7.46 11.081 15.294 21.915 23.5 32.5 0.749 1.135 0.583 2.135-0.5 3-18.944-8.975-37.944-17.642-57-26-0.262-1.478 0.071-2.811 1-4 9.525-9.358 18.525-19.191 27-29.5-0.454-5.632-1.62-11.132-3.5-16.5-11.612-13.607-22.446-27.774-32.5-42.5 0.333-0.833 0.667-1.667 1-2.5 5.323-3.337 10.323-7.003 15-11z"
    fill="#fec106" opacity=".941" />
  <path
    d="m563.5 684.5c2.357-0.163 4.69 3e-3 7 0.5l39.5 39.5 39.5-39.5c1.973-0.495 3.973-0.662 6-0.5v102h-23c0.167-17.337 0-34.67-0.5-52l-21.5 21.5c-0.667 0.667-1.333 0.667-2 0l-44.5-44.5c-0.5-8.994-0.666-17.994-0.5-27z"
    fill="#fec106" opacity=".929" />
  <path
    d="m1126.5 684.5c2.36-0.163 4.69 3e-3 7 0.5 13.17 13.167 26.33 26.333 39.5 39.5 13.17-13.167 26.33-26.333 39.5-39.5 1.97-0.495 3.97-0.662 6-0.5v102h-23c0.17-17.337 0-34.67-0.5-52-7.17 7.167-14.33 14.333-21.5 21.5-0.67 0.667-1.33 0.667-2 0-14.83-14.833-29.67-29.667-44.5-44.5-0.5-8.994-0.67-17.994-0.5-27z"
    fill="#fec106" opacity=".929" />
  <path d="m146.5 685.5h92v22h-92v-22z" fill="#fec106" opacity=".959" />
  <path d="m251.5 685.5h22v36h46v-36h22v101h-22v-42h-46v42h-22v-101z" fill="#fec106" opacity=".962" />
  <path d="m356.5 685.5h91v22h-91v-22z" fill="#fec106" opacity=".959" />
  <path d="m526.5 685.5h22v101h-22v-101z" fill="#fec106" opacity=".972" />
  <path
    d="m669.5 685.5c19.669-0.167 39.336 0 59 0.5 18.667 5.03 26.501 17.196 23.5 36.5-3.604 10.605-10.771 17.438-21.5 20.5-12.996 0.5-25.996 0.667-39 0.5v43h-22v-65c18.67 0.167 37.336 0 56-0.5 4.756-2.339 5.923-5.839 3.5-10.5-1.171-1.393-2.671-2.227-4.5-2.5-18.33-0.5-36.664-0.667-55-0.5v-22z"
    fill="#fec106" opacity=".964" />
  <path d="m766.5 685.5h91v22h-91v-22z" fill="#fec106" opacity=".959" />
  <path
    d="m871.5 685.5h86c1.27 14.346-2.23 27.346-10.5 39-3.217 2.88-6.05 6.047-8.5 9.5 9.95 17.399 20.283 34.566 31 51.5-8.647 1.165-17.314 1.332-26 0.5-8.917-13.832-17.584-27.832-26-42-7.993-0.5-15.993-0.666-24-0.5v43h-22v-65c13.337 0.167 26.671 0 40-0.5 8.239-1.614 14.573-5.948 19-13-19.664-0.5-39.331-0.667-59-0.5v-22z"
    fill="#fec106" opacity=".96" />
  <path d="m983.5 685.5h22v101h-22v-101z" fill="#fec106" opacity=".972" />
  <path
    d="m1020.5 685.5h22c-0.43 20.707 0.07 41.373 1.5 62 5.49 14.279 15.66 19.446 30.5 15.5 7.66-2.998 12.5-8.498 14.5-16.5 0.5-20.331 0.67-40.664 0.5-61h23c0.17 21.669 0 43.336-0.5 65-3.08 18.084-13.58 29.584-31.5 34.5-21.82 5.391-39.99-0.442-54.5-17.5-2.45-4.031-4.12-8.364-5-13-0.5-22.998-0.67-45.998-0.5-69z"
    fill="#fec106" opacity=".948" />
  <path d="m180.5 721.5h22v65h-22v-65z" fill="#fec106" opacity=".961" />
  <path d="m356.5 721.5h82v23h-60v20h69v22h-91v-65z" fill="#fec106" opacity=".951" />
  <path d="m766.5 721.5h82v23h-60v20h69v22h-91v-65z" fill="#fec106" opacity=".951" />
  <path d="m563.5 730.5c7.298 6.797 14.465 13.797 21.5 21 0.5 11.662 0.667 23.329 0.5 35h-22v-56z" fill="#fec106"
    opacity=".957" />
  <path d="m1126.5 730.5c7.3 6.797 14.46 13.797 21.5 21 0.5 11.662 0.67 23.329 0.5 35h-22v-56z" fill="#fec106"
    opacity=".957" />
</svg>